<?xml version="1.0" encoding="UTF-8"?>
<svg width="30px" height="19px" viewBox="0 0 30 19" version="1.1" xmlns="http://www.w3.org/2000/svg" xmlns:xlink="http://www.w3.org/1999/xlink">
    <!-- Generator: Sketch 52.4 (67378) - http://www.bohemiancoding.com/sketch -->
    <title>Path</title>
    <desc>Created with Sketch.</desc>
    <g id="Page-2" stroke="none" stroke-width="1" fill="none" fill-rule="evenodd">
        <g id="Landing" transform="translate(-1183.000000, -672.000000)" fill="#FFFFFF">
            <g id="Group-2" transform="translate(953.000000, 644.000000)">
                <g id="arrow_right" transform="translate(203.000000, 3.000000)">
                    <path d="M43.778125,31.625 L29.5098676,31.625 C28.4052981,31.625 27.5098676,32.5204305 27.5098676,33.625 L27.5098676,35.375 C27.5098676,36.4795695 28.4052981,37.375 29.5098676,37.375 L43.778125,37.375 C44.8826945,37.375 45.778125,38.2704305 45.778125,39.375 L45.778125,41.6875 C45.778125,42.6570102 46.5640683,43.4429536 47.5335786,43.4429536 C48.0066039,43.4429536 48.459611,43.2520555 48.7899715,42.9135073 L55.6369829,35.8967984 C56.3950937,35.1198984 56.3950937,33.8801016 55.6369829,33.1032016 L48.7899715,26.0864927 C48.1128663,25.392606 47.0014579,25.3790019 46.3075712,26.0561071 C45.969023,26.3864675 45.778125,26.8394747 45.778125,27.3125 L45.778125,29.625 C45.778125,30.7295695 44.8826945,31.625 43.778125,31.625 Z" id="Path"></path>
                </g>
            </g>
        </g>
    </g>
</svg>