<?xml version="1.0" encoding="UTF-8"?>
<svg width="26px" height="26px" viewBox="0 0 26 26" version="1.1" xmlns="http://www.w3.org/2000/svg" xmlns:xlink="http://www.w3.org/1999/xlink">
    <!-- Generator: Sketch 52.4 (67378) - http://www.bohemiancoding.com/sketch -->
    <title>path-1</title>
    <desc>Created with Sketch.</desc>
    <g id="Page-2" stroke="none" stroke-width="1" fill="none" fill-rule="evenodd">
        <g id="dashboard-2" transform="translate(-1377.000000, -86.000000)" fill="#3E3E3E" fill-rule="nonzero">
            <g id="download" transform="translate(1377.000000, 86.000000)">
                <g id="path-1">
                    <path d="M10.96875,0 L15.03125,0 C15.7066406,0 16.25,0.543359375 16.25,1.21875 L16.25,9.75 L20.7035156,9.75 C21.6074218,9.75 22.059375,10.8417969 21.4195313,11.4816406 L13.6957031,19.2105469 C13.3148438,19.5914063 12.6902343,19.5914063 12.309375,19.2105469 L4.57539063,11.4816406 C3.93554688,10.8417969 4.3875,9.75 5.29140625,9.75 L9.75,9.75 L9.75,1.21875 C9.75,0.543359375 10.2933594,0 10.96875,0 Z M26,19.09375 L26,24.78125 C26,25.4566406 25.4566406,26 24.78125,26 L1.21875,26 C0.543359375,26 0,25.4566406 0,24.78125 L0,19.09375 C0,18.4183594 0.543359375,17.875 1.21875,17.875 L8.66835937,17.875 L11.1566406,20.3632813 C12.1773438,21.3839844 13.8226562,21.3839844 14.8433593,20.3632813 L17.3316406,17.875 L24.78125,17.875 C25.4566406,17.875 26,18.4183594 26,19.09375 Z M19.703125,23.5625 C19.703125,23.0039062 19.2460938,22.546875 18.6875,22.546875 C18.1289063,22.546875 17.671875,23.0039062 17.671875,23.5625 C17.671875,24.1210938 18.1289063,24.578125 18.6875,24.578125 C19.2460938,24.578125 19.703125,24.1210938 19.703125,23.5625 Z M22.953125,23.5625 C22.953125,23.0039062 22.4960937,22.546875 21.9375,22.546875 C21.3789062,22.546875 20.921875,23.0039062 20.921875,23.5625 C20.921875,24.1210938 21.3789062,24.578125 21.9375,24.578125 C22.4960937,24.578125 22.953125,24.1210938 22.953125,23.5625 Z"></path>
                </g>
            </g>
        </g>
    </g>
</svg>