<?xml version="1.0" encoding="UTF-8"?>
<svg width="43px" height="43px" viewBox="0 0 43 43" version="1.1" xmlns="http://www.w3.org/2000/svg" xmlns:xlink="http://www.w3.org/1999/xlink">
    <!-- Generator: Sketch 52.4 (67378) - http://www.bohemiancoding.com/sketch -->
    <title>outline-font_download-24px</title>
    <desc>Created with Sketch.</desc>
    <g id="Page-2" stroke="none" stroke-width="1" fill="none" fill-rule="evenodd">
        <g id="dashboard-2-copy" transform="translate(-33.000000, -108.000000)">
            <g id="outline-font_download-24px" transform="translate(29.000000, 103.000000)">
                <polygon id="Path" points="0 0 52 0 52 52 0 52"></polygon>
                <path d="M19.4155,34.025 L31.5415,34.025 L33.9925,40.475 L38.486,40.475 L27.4995,12.525 L23.5005,12.525 L12.514,40.475 L17.0075,40.475 L19.4155,34.025 Z M25.5,17.857 L29.9505,29.725 L21.0495,29.725 L25.5,17.857 Z M42.7,5 L8.3,5 C5.935,5 4,6.935 4,9.3 L4,43.7 C4,46.065 5.935,48 8.3,48 L42.7,48 C45.065,48 47,46.065 47,43.7 L47,9.3 C47,6.935 45.065,5 42.7,5 Z M42.7,43.7 L8.3,43.7 L8.3,9.3 L42.7,9.3 L42.7,43.7 Z" id="Shape" fill="#FFFFFF" fill-rule="nonzero"></path>
            </g>
        </g>
    </g>
</svg>