<?xml version="1.0" encoding="UTF-8"?>
<svg width="49px" height="48px" viewBox="0 0 49 48" version="1.1" xmlns="http://www.w3.org/2000/svg" xmlns:xlink="http://www.w3.org/1999/xlink">
    <!-- Generator: Sketch 52.4 (67378) - http://www.bohemiancoding.com/sketch -->
    <title>Combined-Shape</title>
    <desc>Created with Sketch.</desc>
    <g id="Page-2" stroke="none" stroke-width="1" fill="none" fill-rule="evenodd">
        <g id="Landing" transform="translate(-1357.000000, -39.000000)" fill="#0ED8B2">
            <g id="black" transform="translate(1357.000000, 39.000000)">
                <path d="M32.2448841,47.9557882 C30.6034017,48.2495246 30.5064417,47.0181641 30.5064417,46.0789333 C30.5064417,45.4078808 30.5064417,43.6184077 30.5064417,40.7105139 C30.5064417,39.1447248 30.3950781,37.9890234 30.1723508,37.2434097 C29.9496235,36.4977958 29.504169,35.8640241 28.8359872,35.3420944 C30.6920478,35.3420944 32.5852296,34.8947261 34.5155327,33.9999896 C37.4109872,32.6578847 39.7496235,29.4144646 39.9723508,24.3815715 C40.1208357,21.0263094 39.3227296,18.5285031 37.5780327,16.8881527 C37.8378811,15.769732 37.9678054,14.6513113 37.9678054,13.5328906 C37.9678054,12.4144699 37.7079569,11.2960492 37.1882599,10.1776285 C36.0719547,10.2084805 35.0696819,10.3948839 34.1814417,10.7368388 C33.2932015,11.0787937 32.0682015,11.7498461 30.5064417,12.7499961 C29.8382599,12.5263119 29.0215933,12.3399085 28.0564417,12.1907857 C27.1171002,12.0456508 25.9316221,11.9711427 24.5000072,11.9672616 C24.480194,11.9671016 24.4604344,11.9671149 24.4407209,11.9671414 C24.4210074,11.9671149 24.4012477,11.9671016 24.3814417,11.9671016 C22.9498197,11.9711427 21.7643415,12.0456508 20.825,12.1907857 C19.8598485,12.3399085 19.0431818,12.5263119 18.375,12.7499961 C16.8132402,11.7498461 15.5882402,11.0787937 14.7,10.7368388 C13.8117598,10.3948839 12.8094871,10.2084805 11.6931818,10.1776285 C11.1734849,11.2960492 10.9136363,12.4144699 10.9136363,13.5328906 C10.9136363,14.6513113 11.0435606,15.769732 11.3034091,16.8881527 C9.55871213,18.5285031 8.76060607,21.0263094 8.90909093,24.3815715 C9.1318182,29.4144646 11.4704545,32.6578847 14.3659091,33.9999896 C16.2962121,34.8947261 18.1893939,35.3420944 20.0454545,35.3420944 C19.3772727,35.8640241 18.9318182,36.4977958 18.7090909,37.2434097 C18.4863637,37.9890234 18.4492424,38.4736724 18.5977273,38.6973566 C17.3356061,39.2938476 16.1477273,39.5175318 15.0340909,39.368409 C13.3636363,39.1447248 12.5840909,38.6973566 11.3034091,36.6841993 C10.0227273,34.671042 8.46363634,34.2236737 7.12727273,34.2236737 C5.79090907,34.2236737 6.7931818,35.1184103 7.12727273,35.4539365 C7.46136366,35.7894627 8.79772727,36.236831 9.46590907,37.80262 C10.1340909,39.368409 10.9064417,41.3815663 13.1929936,42.0526187 C14.7173615,42.499987 16.444697,42.499987 18.375,42.0526187 C18.375,44.065776 18.375,45.4078808 18.375,46.0789333 C18.375,46.9764521 18.2864609,48.1407293 16.8462443,47.9860587 C7.06353511,44.7580058 0,35.5100631 0,24.6052556 C0,11.0161482 10.9690237,0 24.5,0 C38.0309763,0 49,11.0161482 49,24.6052556 C49,35.4761734 41.9803003,44.7005088 32.2448841,47.9557882 Z" id="Combined-Shape"></path>
            </g>
        </g>
    </g>
</svg>