<?xml version="1.0" encoding="UTF-8"?>
<svg width="46px" height="45px" viewBox="0 0 46 45" version="1.1" xmlns="http://www.w3.org/2000/svg" xmlns:xlink="http://www.w3.org/1999/xlink">
    <!-- Generator: Sketch 52.4 (67378) - http://www.bohemiancoding.com/sketch -->
    <title>Combined-Shape</title>
    <desc>Created with Sketch.</desc>
    <g id="Page-2" stroke="none" stroke-width="1" fill="none" fill-rule="evenodd">
        <g id="dashboard-2-copy" transform="translate(-1374.000000, -14.000000)" stroke="#3E3E3E">
            <g id="twitter" transform="translate(949.000000, 15.000000)">
                <g id="github" transform="translate(426.000000, 0.000000)">
                    <path d="M28.9545898,42.9603936 C27.4806056,43.2235324 27.3935395,42.1204387 27.3935395,41.2790444 C27.3935395,40.6778932 27.3935395,39.0748236 27.3935395,36.4698353 C27.3935395,35.0671493 27.2935395,34.0318335 27.0935395,33.3638878 C26.8935395,32.6959421 26.4935395,32.1281883 25.8935395,31.6606262 C27.5602062,31.6606262 29.2602062,31.2598588 30.9935395,30.458324 C33.5935395,29.2560217 35.6935395,26.3504579 35.8935395,21.8418244 C36.0268728,18.8360688 35.3102062,16.5984507 33.7435395,15.1289701 C33.9768728,14.1270516 34.0935395,13.125133 34.0935395,12.1232145 C34.0935395,11.121296 33.8602062,10.1193774 33.3935395,9.11745884 C32.391143,9.14509708 31.491143,9.31208351 30.6935395,9.61841808 C29.8959361,9.92475271 28.7959361,10.5259038 27.3935395,11.4218715 C26.7935395,11.2214878 26.0602062,11.0545014 25.1935395,10.9209122 C24.3500491,10.7908955 23.2855382,10.7241487 22.0000065,10.7206718 C21.9822151,10.7205285 21.9644717,10.7205404 21.9467698,10.7205642 C21.9290678,10.7205404 21.9113245,10.7205285 21.8935395,10.7205285 C20.6080013,10.7241487 19.5434904,10.7908955 18.7,10.9209122 C17.8333333,11.0545014 17.1,11.2214878 16.5,11.4218715 C15.0976034,10.5259038 13.9976034,9.92475271 13.2,9.61841808 C12.4023966,9.31208351 11.5023965,9.14509708 10.5,9.11745884 C10.0333333,10.1193774 9.79999998,11.121296 9.79999998,12.1232145 C9.79999998,13.125133 9.91666666,14.1270516 10.15,15.1289701 C8.58333334,16.5984507 7.86666667,18.8360688 8.00000002,21.8418244 C8.20000001,26.3504579 10.3,29.2560217 12.9,30.458324 C14.6333333,31.2598588 16.3333333,31.6606262 18,31.6606262 C17.4,32.1281883 17,32.6959421 16.8,33.3638878 C16.6,34.0318335 16.5666666,34.4659982 16.7,34.6663819 C15.5666667,35.2007385 14.5,35.4011222 13.5,35.267533 C12,35.0671493 11.3,34.6663819 10.15,32.8629285 C9,31.0594751 7.59999998,30.6587077 6.4,30.6587077 C5.19999998,30.6587077 6.09999999,31.4602425 6.4,31.7608181 C6.70000002,32.0613937 7.9,32.4621611 8.49999998,33.8648471 C9.10000002,35.267533 9.79353951,37.0709864 11.8467697,37.6721376 C13.2155899,38.072905 14.7666667,38.072905 16.5,37.6721376 C16.5,39.475591 16.5,40.6778932 16.5,41.2790444 C16.5,42.0830716 16.4204955,43.12607 15.1272398,42.9875109 C6.34276622,40.0957135 0,31.8110982 0,22.0422082 C0,9.86863276 9.84973552,0 22,0 C34.1502645,0 44,9.86863276 44,22.0422082 C44,31.7807387 37.6965962,40.0442058 28.9545898,42.9603936 Z" id="Combined-Shape"></path>
                </g>
            </g>
        </g>
    </g>
</svg>