<?xml version="1.0" encoding="UTF-8"?>
<svg width="36px" height="36px" viewBox="0 0 36 36" version="1.1" xmlns="http://www.w3.org/2000/svg" xmlns:xlink="http://www.w3.org/1999/xlink">
    <!-- Generator: Sketch 52.4 (67378) - http://www.bohemiancoding.com/sketch -->
    <title>outline-language-24px</title>
    <desc>Created with Sketch.</desc>
    <g id="Page-2" stroke="none" stroke-width="1" fill="none" fill-rule="evenodd">
        <g id="dashboard-2-copy" transform="translate(-36.000000, -230.000000)">
            <g id="outline-language-24px" transform="translate(33.000000, 226.000000)">
                <polygon id="Path" points="0 0 43 0 43 43 0 43"></polygon>
                <path d="M20.982,4 C11.046,4 3,12.064 3,22 C3,31.936 11.046,40 20.982,40 C30.936,40 39,31.936 39,22 C39,12.064 30.936,4 20.982,4 Z M33.456,14.8 L28.146,14.8 C27.57,12.55 26.742,10.39 25.662,8.392 C28.974,9.526 31.728,11.83 33.456,14.8 Z M21,7.672 C22.494,9.832 23.664,12.226 24.438,14.8 L17.562,14.8 C18.336,12.226 19.506,9.832 21,7.672 Z M7.068,25.6 C6.78,24.448 6.6,23.242 6.6,22 C6.6,20.758 6.78,19.552 7.068,18.4 L13.152,18.4 C13.008,19.588 12.9,20.776 12.9,22 C12.9,23.224 13.008,24.412 13.152,25.6 L7.068,25.6 Z M8.544,29.2 L13.854,29.2 C14.43,31.45 15.258,33.61 16.338,35.608 C13.026,34.474 10.272,32.188 8.544,29.2 Z M13.854,14.8 L8.544,14.8 C10.272,11.812 13.026,9.526 16.338,8.392 C15.258,10.39 14.43,12.55 13.854,14.8 Z M21,36.328 C19.506,34.168 18.336,31.774 17.562,29.2 L24.438,29.2 C23.664,31.774 22.494,34.168 21,36.328 Z M25.212,25.6 L16.788,25.6 C16.626,24.412 16.5,23.224 16.5,22 C16.5,20.776 16.626,19.57 16.788,18.4 L25.212,18.4 C25.374,19.57 25.5,20.776 25.5,22 C25.5,23.224 25.374,24.412 25.212,25.6 Z M25.662,35.608 C26.742,33.61 27.57,31.45 28.146,29.2 L33.456,29.2 C31.728,32.17 28.974,34.474 25.662,35.608 Z M28.848,25.6 C28.992,24.412 29.1,23.224 29.1,22 C29.1,20.776 28.992,19.588 28.848,18.4 L34.932,18.4 C35.22,19.552 35.4,20.758 35.4,22 C35.4,23.242 35.22,24.448 34.932,25.6 L28.848,25.6 Z" id="Shape" fill="#FFFFFF" fill-rule="nonzero"></path>
            </g>
        </g>
    </g>
</svg>