<?xml version="1.0" encoding="UTF-8"?>
<svg width="898px" height="476px" viewBox="0 0 898 476" version="1.1" xmlns="http://www.w3.org/2000/svg" xmlns:xlink="http://www.w3.org/1999/xlink">
    <!-- Generator: Sketch 52.4 (67378) - http://www.bohemiancoding.com/sketch -->
    <title>undraw_fashion_blogging_w9ol</title>
    <desc>Created with Sketch.</desc>
    <g id="Page-2" stroke="none" stroke-width="1" fill="none" fill-rule="evenodd">
        <g id="Landing" transform="translate(-47.000000, -441.000000)">
            <g id="undraw_fashion_blogging_w9ol" transform="translate(7.000000, 338.000000)">
                <ellipse id="Oval" fill="#3F3D56" cx="489" cy="555" rx="449" ry="24"></ellipse>
                <ellipse id="Oval" fill="#000000" opacity="0.2" cx="487.5" cy="547" rx="402.5" ry="19"></ellipse>
                <rect id="Rectangle" fill="#3F3D56" x="115" y="133" width="735" height="44"></rect>
                <path d="M115,531.056601 C114.999998,536.080704 116.997704,540.899033 120.553645,544.45161 C124.109586,548.004186 128.932477,550.000002 133.961338,550 L831.038663,550 C836.067523,550.000002 840.890414,548.004186 844.446355,544.45161 C848.002296,540.899033 850.000002,536.080704 850,531.056601 L850,154 L115,154 L115,531.056601 Z" id="Path" fill="#3F3D56"></path>
                <path d="M831.038662,103 L133.961338,103 C128.932477,102.999998 124.109586,104.978678 120.553645,108.500753 C116.997704,112.022828 114.999998,116.799787 115,121.780753 L115,155 L850,155 L850,121.780753 C850.000002,116.799787 848.002296,112.022828 844.446355,108.500753 C840.890414,104.978678 836.067523,102.999998 831.038662,103 Z" id="Path" fill="#3F3D56"></path>
                <path d="M831.038662,103 L133.961338,103 C128.932477,102.999998 124.109586,104.978678 120.553645,108.500753 C116.997704,112.022828 114.999998,116.799787 115,121.780753 L115,155 L850,155 L850,121.780753 C850.000002,116.799787 848.002296,112.022828 844.446355,108.500753 C840.890414,104.978678 836.067523,102.999998 831.038662,103 Z" id="Path" fill="#6C63FF" opacity="0.2"></path>
                <circle id="Oval" fill="#3F3D56" cx="158.5" cy="128.5" r="11.5"></circle>
                <circle id="Oval" fill="#3F3D56" cx="190.5" cy="128.5" r="11.5"></circle>
                <circle id="Oval" fill="#3F3D56" cx="221.5" cy="128.5" r="11.5"></circle>
                <rect id="Rectangle" fill="#6C63FF" opacity="0.2" x="147" y="186" width="294" height="337" rx="5.33505"></rect>
                <circle id="Oval" fill="#3C354C" cx="278.5" cy="230.5" r="36.5"></circle>
                <circle id="Oval" fill="#3C354C" cx="276.5" cy="265.5" r="36.5"></circle>
                <path d="M261.045313,240 C261.045313,240 259.426528,262.804125 252.142007,266.061861 C244.857485,269.319597 274.804964,319 274.804964,319 L286.945839,303.525781 L277.233132,275.835095 C277.233132,275.835095 284.517654,253.030978 287.755214,251.402111 C290.992775,249.773243 261.045313,240 261.045313,240 Z" id="Path" fill="#FFC1C7"></path>
                <path d="M261.045313,240 C261.045313,240 259.426528,262.804125 252.142007,266.061861 C244.857485,269.319597 274.804964,319 274.804964,319 L286.945839,303.525781 L277.233132,275.835095 C277.233132,275.835095 284.517654,253.030978 287.755214,251.402111 C290.992775,249.773243 261.045313,240 261.045313,240 Z" id="Path" fill="#000000" opacity="0.1"></path>
                <path d="M360.513769,356 C360.513769,356 396.339692,374.899356 389.011662,396.26384 C381.683632,417.628323 366.21338,372.434221 366.21338,372.434221 L354,363.395398 L360.513769,356 Z" id="Path" fill="#FFC1C7"></path>
                <path d="M360.936922,411 C360.936922,411 375.014191,441.294839 363.421157,442.9324 C351.828123,444.569961 351,415.912682 351,415.912682 L360.936922,411 Z" id="Path" fill="#FFC1C7"></path>
                <path d="M302.518055,325 C303.338778,325 309.904555,327.440131 309.904555,327.440131 C309.904555,327.440131 334.526227,372.175823 344.374897,381.122952 C354.223567,390.070082 368.175853,412.0312 365.713675,413.657989 C363.251496,415.284777 345.19562,426.672003 343.554174,423.41853 C341.912727,420.165057 335.34695,407.964384 331.243334,405.524253 C327.139717,403.084122 306.621671,376.242716 300.876617,373.802594 C295.131563,371.362472 282,332.32041 282,332.32041 L302.518055,325 Z" id="Path" fill="#6C63FF"></path>
                <path d="M302.518055,325 C303.338778,325 309.904555,327.440131 309.904555,327.440131 C309.904555,327.440131 334.526227,372.175823 344.374897,381.122952 C354.223567,390.070082 368.175853,412.0312 365.713675,413.657989 C363.251496,415.284777 345.19562,426.672003 343.554174,423.41853 C341.912727,420.165057 335.34695,407.964384 331.243334,405.524253 C327.139717,403.084122 306.621671,376.242716 300.876617,373.802594 C295.131563,371.362472 282,332.32041 282,332.32041 L302.518055,325 Z" id="Path" fill="#000000" opacity="0.1"></path>
                <circle id="Oval" fill="#FFC1C7" cx="276" cy="237" r="24"></circle>
                <path d="M308,327.948575 C308,327.948575 295.066117,343.584149 293.449379,344.407075 C292.843131,344.719787 288.80127,346.538419 283.999609,348.694476 C276.037084,352.265999 265.964875,356.750946 265.964875,356.750946 C265.964875,356.750946 259.497934,360.865575 256.264467,360.865575 C253.031001,360.865575 235.246905,369.917742 235.246905,369.917742 C235.246905,369.917742 222.313013,379.792861 214.229342,379.792861 C206.145672,379.792861 213.420973,384.730407 202.912188,383.907482 C192.403402,383.084556 201.29545,352.636343 206.145663,348.521713 C210.995876,344.407084 211.80427,327.948593 210.995867,323.01102 C210.187464,318.073447 215.037702,299.969122 221.504653,276.927225 C227.971603,253.885327 241.713846,262.937546 241.713846,262.937546 C241.713846,262.937546 249.797525,258 250.605886,258 C251.414246,258 259.497934,271.989678 261.114671,280.218972 C262.117013,285.321111 268.713352,295.796906 273.579641,303.022183 C276.562566,307.457764 278.898767,310.667185 278.898767,310.667185 C278.898767,310.667185 278.898767,309.12832 278.858301,307.005165 C278.793672,303.334903 278.599716,297.944757 278.090398,295.854546 C277.282029,292.562842 276.473661,275.281417 276.473661,275.281417 C276.473661,275.281417 276.473661,274.458491 278.898767,274.458491 C281.323873,274.458491 300.72469,304.906713 300.72469,304.906713 L302.341427,321.365213 L305.105981,324.58283 L308,327.948575 Z" id="Path" fill="#6C63FF"></path>
                <path d="M308,327.419101 C308,327.419101 295.02762,342.930318 293.40607,343.746699 C292.798017,344.056924 288.744126,345.861091 283.928173,348 C260.561618,342.032274 233.814193,328.643668 233.814193,328.643668 C233.814193,328.643668 226.111846,301.294951 232.598036,289.049248 C239.084226,276.803545 257.732047,290.68201 257.732047,290.68201 C257.732047,290.68201 264.834435,296.208867 273.477235,302.690924 C275.196169,303.980821 276.971718,305.311524 278.771607,306.64221 C288.176668,313.605871 298.043719,320.618627 302.081355,322.520808 C302.819189,322.863672 303.84077,323.394335 305.09741,324.080072 L308,327.419101 Z" id="Path" fill="#000000" opacity="0.1"></path>
                <path d="M227.032706,328.136691 C227.032706,328.136691 287.528176,346.769418 303.0608,348.389657 C318.593424,350.009897 346.388641,380.79441 348.841163,379.98429 C351.293686,379.174171 368.461307,358.921205 364.373787,355.680726 C360.286267,352.440247 311.562865,323.275982 302.81555,319.225384 C294.068236,315.174785 258.097944,287.630759 258.097944,287.630759 C258.097944,287.630759 239.2953,273.858742 232.755223,286.01052 C226.215146,298.162298 227.032706,328.136691 227.032706,328.136691 Z" id="Path" fill="#6C63FF"></path>
                <path d="M258.21802,419.902218 C258.21802,419.902218 248.435935,412.615559 241.914542,414.234783 C235.393148,415.854008 227.241405,420.711813 228.056624,431.23699 C228.532388,437.483474 229.348758,443.699748 230.502141,449.858448 L231.317316,449.858448 L233.762842,435.28513 C233.762842,435.28513 241.09941,438.523649 242.72976,444.191049 C244.360111,449.858448 264.739465,461.193256 269.630508,457.145107 C274.521551,453.096958 264.739465,448.239189 264.739465,448.239189 L258.21802,419.902218 Z" id="Path" fill="#F2F2F2"></path>
                <path d="M258.21802,419.902218 C258.21802,419.902218 248.435935,412.615559 241.914542,414.234783 C235.393148,415.854008 227.241405,420.711813 228.056624,431.23699 C228.532388,437.483474 229.348758,443.699748 230.502141,449.858448 L231.317316,449.858448 L233.762842,435.28513 C233.762842,435.28513 241.09941,438.523649 242.72976,444.191049 C244.360111,449.858448 264.739465,461.193256 269.630508,457.145107 C274.521551,453.096958 264.739465,448.239189 264.739465,448.239189 L258.21802,419.902218 Z" id="Path" fill="#000000" opacity="0.1"></path>
                <path d="M276.247504,425 C276.247504,425 346.140897,416.833341 342.890013,403.766666 C339.639129,390.699992 315.257755,376 315.257755,376 L274.622075,384.166668 L248,413.117617 L258.367803,418.466667 L276.247504,425 Z" id="Path" fill="#3C354C"></path>
                <path d="M276.247504,425 C276.247504,425 346.140897,416.833341 342.890013,403.766666 C339.639129,390.699992 315.257755,376 315.257755,376 L274.622075,384.166668 L248,413.117617 L258.367803,418.466667 L276.247504,425 Z" id="Path" fill="#000000" opacity="0.1"></path>
                <path d="M245.022941,438 C245.022941,438 231.030412,461.469074 226.914966,462.278345 C222.79952,463.087615 217.860975,467.943326 223.622602,478.463913 C227.07701,484.74704 229.310049,491.608191 230.207321,498.69587 L231.853503,498.69587 L231.030412,484.12886 C231.030412,484.12886 241.730586,501.123708 242.553677,507.597934 C243.376768,514.072159 273.831089,520.546385 278.769635,511.64433 C283.708181,502.742275 272.184916,496.268041 272.184916,496.268041 C272.184916,496.268041 254.900024,477.654599 257.369296,464.706182 C259.838569,451.757766 262.307833,448.520614 262.307833,448.520614 L245.022941,438 Z" id="Path" fill="#F2F2F2"></path>
                <path d="M198.918436,377.96674 C198.918436,377.96674 191.545443,424.593968 218.579738,422.957932 C245.614034,421.321896 302.140319,387.78301 302.140319,387.78301 L319.343972,368.96851 C319.343972,368.96851 331.63229,351.790065 311.151756,346.88193 C290.671223,341.973795 257.083156,359.152276 257.083156,359.152276 L206.291385,381.238856 L198.918436,377.96674 Z" id="Path" fill="#3C354C"></path>
                <path d="M315.7234,366 L319,370.093372 C319,370.093372 269.031914,451.142218 264.117023,451.960895 C259.202132,452.779571 242,440.499445 242,438.043417 C242,435.587388 248.553191,421.669911 250.191482,420.032558 C251.829773,418.395206 268.212764,380.736171 271.489364,378.280125 C274.765963,375.824079 315.7234,366 315.7234,366 Z" id="Path" fill="#3C354C"></path>
                <ellipse id="Oval" fill="#3C354C" cx="278" cy="219" rx="27" ry="18"></ellipse>
                <rect id="Rectangle" fill="#6C63FF" opacity="0.2" x="527" y="239" width="248" height="19" rx="5.47638"></rect>
                <rect id="Rectangle" fill="#6C63FF" opacity="0.2" x="469" y="307" width="365" height="13" rx="5.47638"></rect>
                <rect id="Rectangle" fill="#6C63FF" opacity="0.2" x="469" y="347" width="365" height="13" rx="5.47638"></rect>
                <rect id="Rectangle" fill="#6C63FF" opacity="0.2" x="469" y="385" width="365" height="13" rx="5.47638"></rect>
                <rect id="Rectangle" fill="#6C63FF" opacity="0.2" x="469" y="423" width="365" height="13" rx="5.47638"></rect>
                <rect id="Rectangle" fill="#6C63FF" x="757" y="483" width="77" height="23" rx="7.02756"></rect>
            </g>
        </g>
    </g>
</svg>