<?xml version="1.0" encoding="UTF-8"?>
<svg width="29px" height="52px" viewBox="0 0 29 52" version="1.1" xmlns="http://www.w3.org/2000/svg" xmlns:xlink="http://www.w3.org/1999/xlink">
    <!-- Generator: Sketch 52.4 (67378) - http://www.bohemiancoding.com/sketch -->
    <title>Logo 6 Copy 5</title>
    <desc>Created with Sketch.</desc>
    <g id="Page-2" stroke="none" stroke-width="1" fill="none" fill-rule="evenodd">
        <g id="dashboard-2-copy" transform="translate(-39.000000, -11.000000)">
            <g id="Logo-6-Copy-5" transform="translate(21.000000, 6.000000)">
                <g id="Logo-/-new" transform="translate(13.979167, 2.541667)">
                    <g id="Group" transform="translate(-0.639344, 0.000000)">
                        <path d="M19.6483965,21.9963665 L19.6483965,21.9963665 C24.0042915,21.9761225 27.5518531,25.4908622 27.5720971,29.8467572 C27.5722108,29.8712138 27.5722107,29.8956707 27.5720968,29.9201273 L27.4893438,47.6969065 C27.4688215,52.1054404 23.9000608,55.6741738 19.4915268,55.6946624 L19.4915268,55.6946624 C15.1356318,55.7149064 11.5880702,52.2001668 11.5678262,47.8442718 C11.5677125,47.8198152 11.5677126,47.7953582 11.5678265,47.7709016 L11.6505795,29.9941224 C11.6711018,25.5855886 15.2398625,22.0168551 19.6483965,21.9963665 Z" id="Rectangle" fill="#9800D0" transform="translate(19.569962, 38.845514) rotate(40.000000) translate(-19.569962, -38.845514) "></path>
                        <path d="M17.1654607,1.99604045 L17.1654607,1.99604045 C21.5195354,1.97559865 25.0657816,5.4887022 25.0862234,9.84277685 C25.0863393,9.86746433 25.0863393,9.89215222 25.0862233,9.9168397 L25.0384731,20.0775265 C25.0177614,24.4847395 21.4501248,28.0523595 17.0429117,28.0730507 L17.0429117,28.0730507 C12.6888371,28.0934925 9.14259083,24.580389 9.12214903,20.2263143 C9.12203313,20.2016269 9.12203319,20.176939 9.12214921,20.1522515 L9.16989939,9.99156471 C9.19061111,5.58435172 12.7582477,2.01673173 17.1654607,1.99604045 Z" id="Rectangle-Copy-2" fill="#6EE8D1" transform="translate(17.104186, 15.034546) rotate(42.000000) translate(-17.104186, -15.034546) "></path>
                        <path d="M9.97278246,8.93302055 C7.80342298,8.44361578 10.21449,7.95873918 17.2059835,7.47839076 L17.2059835,7.47839126 C24.0933065,7.00519984 30.0601824,12.2048808 30.5333738,19.0922038 C30.5565685,19.4298031 30.5660445,19.768205 30.5617786,20.1065733 L30.4025735,32.7344295 C30.3469512,37.1462954 26.7655255,40.6994444 22.3533572,40.7200941 L22.3533572,40.7200941 C18.004117,40.7404493 14.46186,37.2311945 14.4415048,32.8819543 C14.4413899,32.8573997 14.4413898,32.8328447 14.4415046,32.8082901 L14.5246796,15.01312 C14.7190906,11.6881808 13.2017915,9.66148093 9.97278246,8.93302055 Z" id="Rectangle-Copy" fill="#9800D0" transform="translate(19.882487, 24.084338) scale(-1, 1) rotate(49.000000) translate(-19.882487, -24.084338) "></path>
                        <path d="M12.3824328,31.5065972 C13.4493268,32.3963759 13.4493268,33.5666584 12.3824328,35.0174446 C13.2069471,35.2579303 14.7322671,34.5325372 16.9583927,32.8412653 L12.3824328,31.5065972 Z" id="Path-2" fill="#9800D0"></path>
                    </g>
                </g>
            </g>
        </g>
    </g>
</svg>