<?xml version="1.0" encoding="UTF-8"?>
<svg width="73px" height="58px" viewBox="0 0 73 58" version="1.1" xmlns="http://www.w3.org/2000/svg" xmlns:xlink="http://www.w3.org/1999/xlink">
    <!-- Generator: Sketch 52.4 (67378) - http://www.bohemiancoding.com/sketch -->
    <title>Logo 6</title>
    <desc>Created with Sketch.</desc>
    <defs>
        <path d="M0,13.1926112 C0,10.4363699 2.19211194,7.76237883 4.89692915,7.21994268 L32.8278775,1.61854531 L40.0292277,6.33854807 L68.0995441,0.942100328 C70.8059912,0.421792684 73,2.22915774 73,5.00399967 L73,39.9476187 C73,42.7112514 70.7983461,45.3621668 68.0817553,45.8687369 L40.0292277,51.0997684 L32.8278775,47.183687 L4.87921742,53.1760826 C2.18450005,53.7538496 0,51.9870186 0,49.2316058 L0,13.1926112 Z" id="path-1"></path>
        <path d="M0,13.1926112 C0,10.4363699 2.19211194,7.76237883 4.89692915,7.21994268 L32.8278775,1.61854531 L40.0292277,6.33854807 L68.0995441,0.942100328 C70.8059912,0.421792684 73,2.22915774 73,5.00399967 L73,39.9476187 C73,42.7112514 70.7983461,45.3621668 68.0817553,45.8687369 L40.0292277,51.0997684 L32.8278775,47.183687 L4.87921742,53.1760826 C2.18450005,53.7538496 0,51.9870186 0,49.2316058 L0,13.1926112 Z" id="path-3"></path>
    </defs>
    <g id="Page-2" stroke="none" stroke-width="1" fill="none" fill-rule="evenodd">
        <g id="Landing" transform="translate(-438.000000, -197.000000)">
            <g id="Logo-6" transform="translate(432.000000, 181.000000)">
                <g id="Logo-/-6" transform="translate(6.197917, 10.625000)">
                    <g id="Group" transform="translate(0.000000, 5.333333)">
                        <g id="National" transform="translate(0.000000, 4.444444)">
                            <g id="Rectangle-1-Copy-+-Path-1-Copy-Copy-Copy">
                                <mask id="mask-2" fill="white">
                                    <use xlink:href="#path-1"></use>
                                </mask>
                                <path stroke="#9800D0" d="M40.1121134,50.5756938 L67.9900988,45.3772096 C70.4698446,44.9148046 72.5,42.4705901 72.5,39.9476187 L72.5,5.00399967 C72.5,2.54685396 70.5956546,0.971385307 68.1939393,1.43310903 L39.9246224,6.86781412 L32.7252201,2.14908809 L4.99524386,7.71018162 C2.52406715,8.20576246 0.5,10.6745618 0.5,13.1926112 L0.5,49.2316058 C0.5,51.6689914 2.39126185,53.1981548 4.77439607,52.6871936 L32.9040893,46.6559831 L40.1121134,50.5756938 Z"></path>
                                <path d="M33.4897045,2.09229726 L33.4897045,47.2629971 L39.7621772,50.5339061 L39.7621772,6.6675485 L33.4897045,2.09229726 Z" id="Rectangle" stroke="#9800D0" mask="url(#mask-2)"></path>
                            </g>
                        </g>
                        <g id="National-Copy">
                            <g id="Rectangle-1-Copy-+-Path-1-Copy-Copy-Copy">
                                <mask id="mask-4" fill="white">
                                    <use xlink:href="#path-3"></use>
                                </mask>
                                <path stroke="#9800D0" d="M40.1121134,50.5756938 L67.9900988,45.3772096 C70.4698446,44.9148046 72.5,42.4705901 72.5,39.9476187 L72.5,5.00399967 C72.5,2.54685396 70.5956546,0.971385307 68.1939393,1.43310903 L39.9246224,6.86781412 L32.7252201,2.14908809 L4.99524386,7.71018162 C2.52406715,8.20576246 0.5,10.6745618 0.5,13.1926112 L0.5,49.2316058 C0.5,51.6689914 2.39126185,53.1981548 4.77439607,52.6871936 L32.9040893,46.6559831 L40.1121134,50.5756938 Z"></path>
                                <path d="M33.4897045,2.09229726 L33.4897045,47.2629971 L39.7621772,50.5339061 L39.7621772,6.6675485 L33.4897045,2.09229726 Z" id="Rectangle" stroke="#9800D0" mask="url(#mask-4)"></path>
                            </g>
                        </g>
                        <path d="M4.90736156,12.3127011 L32.9897045,6.68251993 L32.9897045,46.4780477 L4.49809734,52.3732334 C2.87560974,52.7089416 1.2881784,51.6658007 0.952470222,50.0433131 C0.911094129,49.8433413 0.890243902,49.6396673 0.890243902,49.4354597 L0.890243902,17.2151435 C0.890243902,14.8326209 2.57132548,12.7810489 4.90736156,12.3127011 Z" id="Rectangle" fill-opacity="0.6" fill="#0ED8B2"></path>
                        <path d="M44.2894142,11.1766121 L71.9746996,5.93021611 L72.1759012,44.9512408 L43.5356625,50.3658342 C41.9453639,50.6664888 40.4124435,49.6210258 40.1117888,48.0307272 C40.0171943,47.530374 40.0546115,47.0140071 40.2203525,46.5325183 L40.2203525,16.0891831 C40.2203525,13.6867476 41.9289872,11.623916 44.2894142,11.1766121 Z" id="Rectangle-Copy" fill-opacity="0.6" fill="#0ED8B2" transform="translate(56.118438, 28.173258) rotate(180.000000) translate(-56.118438, -28.173258) "></path>
                    </g>
                </g>
            </g>
        </g>
    </g>
</svg>