<?xml version="1.0" encoding="UTF-8"?>
<svg width="25px" height="21px" viewBox="0 0 25 21" version="1.1" xmlns="http://www.w3.org/2000/svg" xmlns:xlink="http://www.w3.org/1999/xlink">
    <!-- Generator: Sketch 52.4 (67378) - http://www.bohemiancoding.com/sketch -->
    <title>Fill-1-Copy</title>
    <desc>Created with Sketch.</desc>
    <g id="Page-2" stroke="none" stroke-width="1" fill="none" fill-rule="evenodd">
        <g id="dashboard-2-copy" transform="translate(-1185.000000, -26.000000)" fill="#009CF9">
            <g id="twitter" transform="translate(949.000000, 15.000000)">
                <g id="Group" transform="translate(217.000000, 0.000000)">
                    <path d="M44,13.426418 C43.0804688,13.8379158 42.0914062,14.1161892 41.0539062,14.2415305 C42.1132812,13.6006345 42.9265625,12.5868679 43.309375,11.3783888 C42.31875,11.9711978 41.2203125,12.4016151 40.0523438,12.6341665 C39.1164062,11.628283 37.7835937,11 36.3085938,11 C33.4757812,11 31.1796875,13.3168429 31.1796875,16.1752548 C31.1796875,16.5804461 31.225,16.9753893 31.3125,17.3545664 C27.0492188,17.1385695 23.2703125,15.0779273 20.740625,11.9467602 C20.2992188,12.7114209 20.0460938,13.6006345 20.0460938,14.5489714 C20.0460938,16.3439531 20.9515625,17.9284561 22.3273438,18.8562969 C21.4867188,18.8294944 20.6960937,18.5969429 20.0046875,18.2090944 C20.0039062,18.2311671 20.0039062,18.2524515 20.0039062,18.2745242 C20.0039062,20.782138 21.771875,22.8735243 24.11875,23.3488752 C23.6882812,23.4671217 23.2351562,23.5301865 22.7671875,23.5301865 C22.4367188,23.5301865 22.115625,23.4978658 21.8023437,23.4379542 C22.4546875,25.4938665 24.3492187,26.9900788 26.59375,27.0318592 C24.8382813,28.4200731 22.6265625,29.2470102 20.2234375,29.2470102 C19.809375,29.2470102 19.4015625,29.2225726 19,29.175274 C21.2695312,30.6431071 23.965625,31.5 26.8625,31.5 C36.296875,31.5 41.4554688,23.6137473 41.4554688,16.7751586 C41.4554688,16.5504903 41.4507813,16.3273986 41.440625,16.1050952 C42.4429687,15.3759085 43.3125,14.4646222 44,13.426418" id="Fill-1-Copy"></path>
                </g>
            </g>
        </g>
    </g>
</svg>