<?xml version="1.0" encoding="UTF-8"?>
<svg width="25px" height="21px" viewBox="0 0 25 21" version="1.1" xmlns="http://www.w3.org/2000/svg" xmlns:xlink="http://www.w3.org/1999/xlink">
    <!-- Generator: Sketch 52.4 (67378) - http://www.bohemiancoding.com/sketch -->
    <title>Fill-1-Copy</title>
    <desc>Created with Sketch.</desc>
    <g id="Page-2" stroke="none" stroke-width="1" fill="none" fill-rule="evenodd">
        <g id="dashboard-2" transform="translate(-1125.000000, -25.000000)" fill="#FFFFFF">
            <g id="twitter" transform="translate(850.000000, 14.000000)">
                <g id="Group" transform="translate(258.000000, 0.000000)">
                    <path d="M42,13.426418 C41.0804688,13.8379158 40.0914062,14.1161892 39.0539062,14.2415305 C40.1132812,13.6006345 40.9265625,12.5868679 41.309375,11.3783888 C40.31875,11.9711978 39.2203125,12.4016151 38.0523438,12.6341665 C37.1164062,11.628283 35.7835937,11 34.3085938,11 C31.4757813,11 29.1796875,13.3168429 29.1796875,16.1752548 C29.1796875,16.5804461 29.225,16.9753893 29.3125,17.3545664 C25.0492188,17.1385695 21.2703125,15.0779273 18.740625,11.9467602 C18.2992188,12.7114209 18.0460938,13.6006345 18.0460938,14.5489714 C18.0460938,16.3439531 18.9515625,17.9284561 20.3273438,18.8562969 C19.4867188,18.8294944 18.6960937,18.5969429 18.0046875,18.2090944 C18.0039062,18.2311671 18.0039062,18.2524515 18.0039062,18.2745242 C18.0039062,20.782138 19.771875,22.8735243 22.11875,23.3488752 C21.6882812,23.4671217 21.2351562,23.5301865 20.7671875,23.5301865 C20.4367188,23.5301865 20.115625,23.4978658 19.8023437,23.4379542 C20.4546875,25.4938665 22.3492187,26.9900788 24.59375,27.0318592 C22.8382813,28.4200731 20.6265625,29.2470102 18.2234375,29.2470102 C17.809375,29.2470102 17.4015625,29.2225726 17,29.175274 C19.2695312,30.6431071 21.965625,31.5 24.8625,31.5 C34.296875,31.5 39.4554688,23.6137473 39.4554688,16.7751586 C39.4554688,16.5504903 39.4507813,16.3273986 39.440625,16.1050952 C40.4429687,15.3759085 41.3125,14.4646222 42,13.426418" id="Fill-1-Copy"></path>
                </g>
            </g>
        </g>
    </g>
</svg>